#define py_blue_trans_out1_width 16
#define py_blue_trans_out1_height 16
static unsigned char py_blue_trans_out1_bits[] = {
   0x00, 0x00, 0x7f, 0xfe, 0x81, 0x99, 0x01, 0x99, 0x39, 0x99, 0x39, 0x99,
   0x01, 0x81, 0x81, 0xc3, 0xf9, 0x66, 0x09, 0x24, 0x09, 0x24, 0x09, 0x24,
   0x09, 0x24, 0x09, 0x24, 0x0f, 0x3c, 0x00, 0x00 };
